<mxfile host="app.diagrams.net" agent="Mozilla/5.0 (Windows NT 10.0; Win64; x64) AppleWebKit/537.36 (KHTML, like Gecko) Chrome/136.0.0.0 Safari/537.36" version="27.0.3">
  <diagram name="Page-1" id="v-3o8s1sR7gOshgKEosU">
    <mxGraphModel dx="2073" dy="772" grid="1" gridSize="10" guides="1" tooltips="1" connect="1" arrows="1" fold="1" page="1" pageScale="1" pageWidth="850" pageHeight="1100" math="0" shadow="0">
      <root>
        <mxCell id="0" />
        <mxCell id="1" parent="0" />
        <mxCell id="oz_EaFRaKvt6O-RI5dWR-10" style="edgeStyle=orthogonalEdgeStyle;rounded=0;orthogonalLoop=1;jettySize=auto;html=1;exitX=0.5;exitY=1;exitDx=0;exitDy=0;entryX=0.5;entryY=0;entryDx=0;entryDy=0;" edge="1" parent="1" source="oz_EaFRaKvt6O-RI5dWR-1" target="oz_EaFRaKvt6O-RI5dWR-4">
          <mxGeometry relative="1" as="geometry" />
        </mxCell>
        <mxCell id="oz_EaFRaKvt6O-RI5dWR-1" value="" style="ellipse;fillColor=strokeColor;html=1;" vertex="1" parent="1">
          <mxGeometry x="370" y="10" width="30" height="30" as="geometry" />
        </mxCell>
        <mxCell id="oz_EaFRaKvt6O-RI5dWR-2" value="" style="ellipse;html=1;shape=endState;fillColor=strokeColor;" vertex="1" parent="1">
          <mxGeometry x="370" y="580" width="30" height="30" as="geometry" />
        </mxCell>
        <mxCell id="oz_EaFRaKvt6O-RI5dWR-11" style="edgeStyle=orthogonalEdgeStyle;rounded=0;orthogonalLoop=1;jettySize=auto;html=1;exitX=0.5;exitY=1;exitDx=0;exitDy=0;entryX=0.5;entryY=0;entryDx=0;entryDy=0;" edge="1" parent="1" source="oz_EaFRaKvt6O-RI5dWR-4" target="oz_EaFRaKvt6O-RI5dWR-6">
          <mxGeometry relative="1" as="geometry" />
        </mxCell>
        <mxCell id="oz_EaFRaKvt6O-RI5dWR-4" value="(Patient)&lt;div&gt;Login System&lt;/div&gt;" style="html=1;dashed=0;rounded=1;absoluteArcSize=1;arcSize=20;verticalAlign=middle;align=center;whiteSpace=wrap;" vertex="1" parent="1">
          <mxGeometry x="305" y="60" width="160" height="50" as="geometry" />
        </mxCell>
        <mxCell id="oz_EaFRaKvt6O-RI5dWR-12" style="edgeStyle=orthogonalEdgeStyle;rounded=0;orthogonalLoop=1;jettySize=auto;html=1;exitX=0.5;exitY=1;exitDx=0;exitDy=0;" edge="1" parent="1" source="oz_EaFRaKvt6O-RI5dWR-6">
          <mxGeometry relative="1" as="geometry">
            <mxPoint x="385" y="200" as="targetPoint" />
          </mxGeometry>
        </mxCell>
        <mxCell id="oz_EaFRaKvt6O-RI5dWR-6" value="(Authentication System)&lt;div&gt;Ask for Name and Password&lt;/div&gt;" style="html=1;dashed=0;rounded=1;absoluteArcSize=1;arcSize=20;verticalAlign=middle;align=center;whiteSpace=wrap;" vertex="1" parent="1">
          <mxGeometry x="305" y="130" width="160" height="50" as="geometry" />
        </mxCell>
        <mxCell id="oz_EaFRaKvt6O-RI5dWR-19" style="edgeStyle=orthogonalEdgeStyle;rounded=0;orthogonalLoop=1;jettySize=auto;html=1;exitX=0.5;exitY=1;exitDx=0;exitDy=0;" edge="1" parent="1" source="oz_EaFRaKvt6O-RI5dWR-7">
          <mxGeometry relative="1" as="geometry">
            <mxPoint x="240" y="300" as="targetPoint" />
          </mxGeometry>
        </mxCell>
        <mxCell id="oz_EaFRaKvt6O-RI5dWR-7" value="(Patient)&lt;div&gt;Enter Name&amp;nbsp;&lt;/div&gt;" style="html=1;dashed=0;rounded=1;absoluteArcSize=1;arcSize=20;verticalAlign=middle;align=center;whiteSpace=wrap;" vertex="1" parent="1">
          <mxGeometry x="160" y="220" width="160" height="50" as="geometry" />
        </mxCell>
        <mxCell id="oz_EaFRaKvt6O-RI5dWR-20" style="edgeStyle=orthogonalEdgeStyle;rounded=0;orthogonalLoop=1;jettySize=auto;html=1;exitX=0.5;exitY=1;exitDx=0;exitDy=0;" edge="1" parent="1" source="oz_EaFRaKvt6O-RI5dWR-8">
          <mxGeometry relative="1" as="geometry">
            <mxPoint x="560" y="300" as="targetPoint" />
          </mxGeometry>
        </mxCell>
        <mxCell id="oz_EaFRaKvt6O-RI5dWR-8" value="(Patient)&lt;div&gt;Enter Password&lt;/div&gt;" style="html=1;dashed=0;rounded=1;absoluteArcSize=1;arcSize=20;verticalAlign=middle;align=center;whiteSpace=wrap;" vertex="1" parent="1">
          <mxGeometry x="480" y="220" width="160" height="50" as="geometry" />
        </mxCell>
        <mxCell id="oz_EaFRaKvt6O-RI5dWR-9" value="" style="endArrow=none;startArrow=none;endFill=0;startFill=0;endSize=8;html=1;verticalAlign=bottom;labelBackgroundColor=none;strokeWidth=3;rounded=0;" edge="1" parent="1">
          <mxGeometry width="160" relative="1" as="geometry">
            <mxPoint x="160" y="200" as="sourcePoint" />
            <mxPoint x="630" y="200" as="targetPoint" />
          </mxGeometry>
        </mxCell>
        <mxCell id="oz_EaFRaKvt6O-RI5dWR-14" style="edgeStyle=orthogonalEdgeStyle;rounded=0;orthogonalLoop=1;jettySize=auto;html=1;exitX=0.5;exitY=1;exitDx=0;exitDy=0;" edge="1" parent="1">
          <mxGeometry relative="1" as="geometry">
            <mxPoint x="239.5" y="220" as="targetPoint" />
            <mxPoint x="239.5" y="200" as="sourcePoint" />
            <Array as="points">
              <mxPoint x="239.5" y="220" />
            </Array>
          </mxGeometry>
        </mxCell>
        <mxCell id="oz_EaFRaKvt6O-RI5dWR-16" style="edgeStyle=orthogonalEdgeStyle;rounded=0;orthogonalLoop=1;jettySize=auto;html=1;exitX=0.5;exitY=1;exitDx=0;exitDy=0;" edge="1" parent="1">
          <mxGeometry relative="1" as="geometry">
            <mxPoint x="560" y="220" as="targetPoint" />
            <mxPoint x="560" y="200" as="sourcePoint" />
            <Array as="points">
              <mxPoint x="560" y="220" />
            </Array>
          </mxGeometry>
        </mxCell>
        <mxCell id="oz_EaFRaKvt6O-RI5dWR-18" value="" style="endArrow=none;startArrow=none;endFill=0;startFill=0;endSize=8;html=1;verticalAlign=bottom;labelBackgroundColor=none;strokeWidth=3;rounded=0;" edge="1" parent="1">
          <mxGeometry width="160" relative="1" as="geometry">
            <mxPoint x="160" y="300" as="sourcePoint" />
            <mxPoint x="630" y="300" as="targetPoint" />
          </mxGeometry>
        </mxCell>
        <mxCell id="oz_EaFRaKvt6O-RI5dWR-26" style="edgeStyle=orthogonalEdgeStyle;rounded=0;orthogonalLoop=1;jettySize=auto;html=1;exitX=0.5;exitY=1;exitDx=0;exitDy=0;entryX=0.5;entryY=0;entryDx=0;entryDy=0;" edge="1" parent="1" source="oz_EaFRaKvt6O-RI5dWR-22" target="oz_EaFRaKvt6O-RI5dWR-23">
          <mxGeometry relative="1" as="geometry" />
        </mxCell>
        <mxCell id="oz_EaFRaKvt6O-RI5dWR-22" value="(Authentication System)&lt;div&gt;Check Patient Authority&lt;/div&gt;" style="html=1;dashed=0;rounded=1;absoluteArcSize=1;arcSize=20;verticalAlign=middle;align=center;whiteSpace=wrap;" vertex="1" parent="1">
          <mxGeometry x="305" y="330" width="160" height="50" as="geometry" />
        </mxCell>
        <mxCell id="oz_EaFRaKvt6O-RI5dWR-28" style="edgeStyle=orthogonalEdgeStyle;rounded=0;orthogonalLoop=1;jettySize=auto;html=1;exitX=0.5;exitY=1;exitDx=0;exitDy=0;entryX=0.5;entryY=0;entryDx=0;entryDy=0;" edge="1" parent="1" source="oz_EaFRaKvt6O-RI5dWR-23" target="oz_EaFRaKvt6O-RI5dWR-27">
          <mxGeometry relative="1" as="geometry" />
        </mxCell>
        <mxCell id="oz_EaFRaKvt6O-RI5dWR-35" style="edgeStyle=orthogonalEdgeStyle;rounded=0;orthogonalLoop=1;jettySize=auto;html=1;exitX=1;exitY=0.5;exitDx=0;exitDy=0;entryX=1;entryY=0.5;entryDx=0;entryDy=0;" edge="1" parent="1" source="oz_EaFRaKvt6O-RI5dWR-23" target="oz_EaFRaKvt6O-RI5dWR-2">
          <mxGeometry relative="1" as="geometry">
            <Array as="points">
              <mxPoint x="570" y="425" />
              <mxPoint x="570" y="595" />
            </Array>
          </mxGeometry>
        </mxCell>
        <mxCell id="oz_EaFRaKvt6O-RI5dWR-23" value="" style="rhombus;" vertex="1" parent="1">
          <mxGeometry x="370" y="410" width="30" height="30" as="geometry" />
        </mxCell>
        <mxCell id="oz_EaFRaKvt6O-RI5dWR-24" style="edgeStyle=orthogonalEdgeStyle;rounded=0;orthogonalLoop=1;jettySize=auto;html=1;exitX=0.5;exitY=1;exitDx=0;exitDy=0;" edge="1" parent="1">
          <mxGeometry relative="1" as="geometry">
            <mxPoint x="384.40999999999997" y="330" as="targetPoint" />
            <mxPoint x="384.40999999999997" y="300" as="sourcePoint" />
          </mxGeometry>
        </mxCell>
        <mxCell id="oz_EaFRaKvt6O-RI5dWR-34" style="edgeStyle=orthogonalEdgeStyle;rounded=0;orthogonalLoop=1;jettySize=auto;html=1;exitX=0.5;exitY=1;exitDx=0;exitDy=0;entryX=0.5;entryY=0;entryDx=0;entryDy=0;" edge="1" parent="1" source="oz_EaFRaKvt6O-RI5dWR-27" target="oz_EaFRaKvt6O-RI5dWR-2">
          <mxGeometry relative="1" as="geometry" />
        </mxCell>
        <mxCell id="oz_EaFRaKvt6O-RI5dWR-27" value="(Cloud Server)&lt;div&gt;Return the Vital Signs of Patient&lt;/div&gt;" style="html=1;dashed=0;rounded=1;absoluteArcSize=1;arcSize=20;verticalAlign=middle;align=center;whiteSpace=wrap;" vertex="1" parent="1">
          <mxGeometry x="305" y="470" width="160" height="50" as="geometry" />
        </mxCell>
        <mxCell id="oz_EaFRaKvt6O-RI5dWR-29" value="[ok]" style="text;html=1;align=center;verticalAlign=middle;resizable=0;points=[];autosize=1;strokeColor=none;fillColor=none;" vertex="1" parent="1">
          <mxGeometry x="340" y="438" width="40" height="30" as="geometry" />
        </mxCell>
        <mxCell id="oz_EaFRaKvt6O-RI5dWR-31" value="[not ok]" style="text;html=1;align=center;verticalAlign=middle;resizable=0;points=[];autosize=1;strokeColor=none;fillColor=none;" vertex="1" parent="1">
          <mxGeometry x="510" y="400" width="60" height="30" as="geometry" />
        </mxCell>
      </root>
    </mxGraphModel>
  </diagram>
</mxfile>
